<svg xmlns="http://www.w3.org/2000/svg" width="96" height="96" viewBox="0 0 96 96" fill="none">
<path d="M50.6666 44.9777H56.0888V41.9555H59.4666V44.9777H61.2444V36.9777H63.7333V38.2221H64.9777L65.8666 39.111V42.6666H67.6444V38.0444L68.1777 37.3333V36.2666H71.7333V37.511H73.8666V40.1777H75.8222V45.511H78.8444V46.0444C78.8444 63.1821 64.5333 76.6221 48.1777 76.6221C29.4222 76.6221 17.2444 61.1555 17.2444 46.0444C17.2444 44.0533 17.4222 42.4888 17.5111 41.9555H22.3111V35.3777H22.8444V34.311H24.4444L25.3333 35.3777H26.2222V43.7333H27.1111V44.9777H28.5333V38.2221H31.5555V39.9999H32.7999V43.1999H35.8222M35.8222 43.1999V40.1777H38.1333L39.0222 41.2444V44.9777H45.511M35.8222 43.1999V44.2666" stroke="#D6DAEE" stroke-width="2" stroke-linecap="square"/>
<path d="M53.0668 64.8891C53.0668 63.9647 49.7779 61.0669 48.089 59.7335C46.4002 61.0669 43.1113 63.9647 43.1113 64.8891C43.1113 66.0447 44.089 65.778 44.089 65.2447C44.089 64.7113 44.3557 63.9113 45.7779 63.9113C47.2002 63.9113 47.4668 64.978 47.4668 65.8669C47.4668 66.7558 46.7557 67.5558 45.2446 67.5558C43.7335 67.5558 42.4594 66.1335 41.7779 65.4224C41.0076 66.1335 38.9157 67.5558 36.7113 67.5558C33.9557 67.5558 34.1335 64.2669 36.1779 64.2669C37.3335 64.2669 37.9557 65.0669 37.9557 65.0669C38.7261 64.7706 40.2668 63.9647 40.2668 63.1113C40.2668 61.8669 39.1113 62.7558 38.4002 62.7558C36.3557 62.7558 36.0713 59.2891 38.489 59.2891C40.9068 59.2891 41.4224 62.4891 41.4224 62.4891L46.3113 58.0447C44.9779 56.5632 40.8535 53.1735 35.0224 51.4669C29.1913 49.7602 24.8298 49.6298 23.3779 49.778C24.2964 49.5706 26.7202 49.1558 29.0668 49.1558C40.6224 49.1558 48.089 56.0891 48.089 56.0891C48.089 56.0891 55.5557 49.1558 67.1113 49.1558C69.4579 49.1558 71.8816 49.5706 72.8002 49.778C71.3483 49.6298 66.9868 49.7602 61.1557 51.4669C55.3246 53.1735 51.2002 56.5632 49.8668 58.0447L54.7557 62.4891C54.7557 62.4891 55.2713 59.2891 57.689 59.2891C60.1068 59.2891 59.8224 62.7558 57.7779 62.7558C57.0668 62.7558 55.9113 61.8669 55.9113 63.1113C55.9113 63.9647 57.452 64.7706 58.2224 65.0669C58.2224 65.0669 58.8446 64.2669 60.0002 64.2669C62.0446 64.2669 62.2224 67.5558 59.4668 67.5558C57.2624 67.5558 55.1705 66.1335 54.4002 65.4224C53.7187 66.1335 52.4446 67.5558 50.9335 67.5558C49.4224 67.5558 48.7113 66.7558 48.7113 65.8669C48.7113 64.978 48.9779 63.9113 50.4002 63.9113C51.8224 63.9113 52.089 64.7113 52.089 65.2447C52.089 65.778 53.0668 66.0447 53.0668 64.8891Z" stroke="#D6DAEE" stroke-linecap="round" stroke-linejoin="round"/>
<path d="M47.5555 48.5335C47.4074 48.5927 47.0222 48.7824 46.6666 49.0668C46.3111 49.3512 46.1629 49.6594 46.1333 49.7779L50.0444 49.7779C50.0148 49.6594 49.8666 49.3512 49.5111 49.0668C49.1555 48.7823 48.7703 48.5927 48.6222 48.5334L49.1555 43.9112L48.6222 43.7334L48.9777 39.289L48.6222 39.2001L48.9777 34.6668L48.6222 34.5779L48.9777 31.4668C49.2148 31.8223 49.7955 33.0312 50.2222 35.0223C50.6488 37.0134 50.9333 40.7112 50.9333 40.7112C51.5555 39.3779 51.8222 36.8001 51.8222 35.3779C51.8222 33.9557 51.3481 31.7038 51.1111 30.7557C51.6148 31.2001 52.8711 32.5512 53.8666 34.4001C54.8622 36.249 55.2888 38.3705 55.3777 39.2001C55.4963 38.9334 55.7333 37.9201 55.7333 36.0001C55.7333 32.7112 53.7777 30.2816 52.8 28.6223C53.5111 28.9186 55.2533 29.8668 56.5333 31.289C57.8133 32.7112 59.0814 34.726 59.5555 35.5557C59.5555 34.7557 59.2533 32.6046 58.0444 30.4001C56.8355 28.1957 54.1037 26.3408 52.8888 25.689C53.6296 25.6297 55.4488 25.6179 56.8 26.0446C58.1511 26.4712 59.4963 27.5853 60 28.089C59.7925 27.3483 58.8266 25.4935 56.6222 24.0001C54.4177 22.5068 52.0296 22.4298 51.1111 22.5779C51.1703 22.4298 51.3777 22.0801 51.7333 21.8668C52.0888 21.6535 52.5333 21.6001 52.7111 21.6001C52.4148 21.3927 51.6266 20.9779 50.8444 20.9779C50.0622 20.9779 49.274 21.5705 48.9777 21.8668C48.9481 21.5409 48.8533 20.7646 48.7111 20.2668C48.5688 19.769 48.2666 19.4668 48.0888 19.3779C47.9111 19.4668 47.6088 19.769 47.4666 20.2668C47.3244 20.7646 47.2296 21.5409 47.2 21.8668C46.9037 21.5705 46.1155 20.9779 45.3333 20.9779C44.5511 20.9779 43.7629 21.3927 43.4666 21.6002C43.6444 21.6002 44.0888 21.6535 44.4444 21.8668C44.8 22.0802 45.0074 22.4298 45.0666 22.5779C44.1481 22.4298 41.76 22.5068 39.5555 24.0001C37.3511 25.4935 36.3851 27.3483 36.1777 28.089C36.6814 27.5853 38.0266 26.4712 39.3777 26.0446C40.7288 25.6179 42.5481 25.6298 43.2888 25.689C42.074 26.3409 39.3422 28.1957 38.1333 30.4001C36.9244 32.6046 36.6222 34.7557 36.6222 35.5557C37.0963 34.7261 38.3644 32.7112 39.6444 31.289C40.9244 29.8668 42.6666 28.9186 43.3777 28.6224C42.4 30.2816 40.4444 32.7112 40.4444 36.0001C40.4444 37.9201 40.6814 38.9335 40.8 39.2001C40.8888 38.3705 41.3155 36.249 42.3111 34.4001C43.3066 32.5512 44.5629 31.2001 45.0666 30.7557C44.8296 31.7038 44.3555 33.9557 44.3555 35.3779C44.3555 36.8001 44.6222 39.3779 45.2444 40.7112C45.2444 40.7112 45.5289 37.0135 45.9555 35.0224C46.3822 33.0312 46.9629 31.8224 47.2 31.4668L47.5555 34.5779L47.2 34.6668L47.5555 39.2001L47.2 39.289L47.5555 43.7335L47.0222 43.9112L47.5555 48.5335Z" fill="#D6DAEE"/>
</svg>